<?xml version="1.0" standalone="no"?>
<!DOCTYPE svg PUBLIC "-//W3C//DTD SVG 20010904//EN"
 "http://www.w3.org/TR/2001/REC-SVG-20010904/DTD/svg10.dtd">
<svg version="1.0" xmlns="http://www.w3.org/2000/svg"
 width="466.000000pt" height="445.000000pt" viewBox="0 0 466.000000 445.000000"
 preserveAspectRatio="xMidYMid meet">

<g transform="translate(0.000000,445.000000) scale(0.100000,-0.100000)"
fill="#000000" stroke="none">
<path d="M2750 3881 c0 -5 9 -15 20 -21 11 -6 20 -20 20 -30 0 -11 9 -29 20
-40 11 -11 20 -31 20 -44 0 -30 14 -41 29 -22 8 10 6 19 -9 39 -26 32 -27 77
-2 77 32 0 179 -117 300 -238 73 -74 102 -91 102 -62 0 11 -91 111 -163 178
-49 47 -170 138 -197 148 -8 3 -23 10 -32 15 -12 6 -18 6 -18 -2 0 -11 -35 -8
-72 6 -10 4 -18 3 -18 -4z"/>
<path d="M3169 2853 c-3 -251 -10 -348 -24 -356 -17 -9 -21 -83 -5 -107 26
-42 58 95 61 260 4 209 0 280 -16 280 -12 0 -15 -16 -16 -77z"/>
<path d="M1475 2898 c-54 -27 -103 -75 -121 -118 -22 -51 -19 -150 6 -208 33
-76 71 -107 203 -168 23 -10 49 -33 65 -58 43 -68 122 -204 191 -330 86 -157
91 -160 266 -163 116 -2 125 -1 88 10 -46 13 -66 35 -77 82 -14 61 -14 80 -3
87 8 5 6 12 -6 26 -9 10 -17 25 -17 33 0 9 -7 24 -15 35 -8 10 -15 35 -15 55
0 29 -4 36 -17 35 -13 -1 -18 7 -18 27 -1 16 -7 32 -15 37 -8 6 -12 10 -7 10
4 0 1 13 -8 30 -10 19 -20 27 -30 24 -12 -5 -15 2 -15 30 0 20 -3 35 -7 35
-25 -4 -34 3 -31 24 1 12 -5 33 -15 47 -9 13 -17 32 -17 41 0 12 -6 16 -19 12
-14 -4 -20 2 -25 27 -5 29 0 118 9 148 8 22 -6 44 -20 32 -17 -14 -25 -1 -29
47 -2 21 -8 38 -12 38 -15 0 -35 16 -30 24 3 3 -7 7 -21 6 -14 0 -28 6 -31 14
-3 8 0 11 7 7 6 -4 11 -3 11 2 0 18 -54 33 -135 37 -34 2 -62 -3 -90 -17z
m118 5 c-7 -2 -19 -2 -25 0 -7 3 -2 5 12 5 14 0 19 -2 13 -5z"/>
<path d="M2870 2810 c0 -5 5 -10 11 -10 5 0 7 5 4 10 -3 6 -8 10 -11 10 -2 0
-4 -4 -4 -10z"/>
<path d="M2650 2614 c0 -8 5 -12 10 -9 6 4 8 11 5 16 -9 14 -15 11 -15 -7z"/>
<path d="M2686 2535 c-6 -18 2 -45 15 -45 12 0 12 47 0 54 -5 3 -11 -1 -15 -9z"/>
<path d="M2717 2456 c-7 -19 11 -86 23 -86 6 0 10 -12 10 -27 0 -23 53 -150
80 -193 5 -8 23 -42 41 -75 17 -33 37 -67 44 -75 18 -21 66 -116 69 -137 6
-36 47 -52 154 -59 89 -6 102 -5 102 9 0 9 12 29 26 44 31 33 48 63 36 63 -4
0 -27 -18 -51 -40 -75 -71 -88 -51 -90 142 -1 108 1 119 22 142 76 83 78 86
60 112 -12 19 -19 22 -29 13 -8 -6 -14 -16 -14 -22 0 -5 -12 -21 -26 -34 -17
-16 -24 -31 -21 -44 3 -11 -1 -32 -9 -47 -8 -15 -14 -48 -14 -73 0 -25 -7 -54
-15 -65 -8 -10 -19 -36 -25 -56 -10 -37 -24 -46 -45 -30 -15 10 -142 213 -149
239 -4 11 -18 28 -31 37 -14 9 -25 22 -25 29 0 20 -56 131 -73 146 -10 7 -17
28 -17 46 0 36 -24 66 -33 41z"/>
<path d="M3361 2004 c0 -11 3 -14 6 -6 3 7 2 16 -1 19 -3 4 -6 -2 -5 -13z"/>
<path d="M3320 1945 c-8 -9 -8 -15 -2 -15 12 0 26 19 19 26 -2 2 -10 -2 -17
-11z"/>
<path d="M1324 1823 c-21 -15 -22 -43 -8 -179 19 -191 91 -459 156 -589 45
-87 119 -192 163 -228 33 -28 45 -45 43 -60 -2 -17 -9 -21 -28 -19 -21 3 -22
2 -11 -12 7 -8 23 -18 34 -22 12 -3 40 -14 62 -24 75 -35 220 -89 265 -100 25
-7 74 -18 110 -26 35 -8 69 -19 75 -23 5 -5 36 -11 69 -15 32 -3 66 -11 76
-16 10 -5 51 -14 91 -20 41 -6 90 -15 109 -21 36 -10 512 -47 565 -44 17 2 68
4 115 5 78 3 81 3 33 9 -61 8 -71 15 -56 40 11 18 2 19 -195 25 -156 6 -223
12 -272 26 -36 11 -90 22 -120 25 -92 11 -147 34 -110 47 6 2 -25 4 -69 5 -44
0 -97 7 -117 13 l-37 13 29 13 29 12 -40 1 c-50 2 -78 17 -30 17 55 0 61 16
22 58 -29 30 -41 36 -76 36 l-41 0 0 120 0 120 40 0 c22 0 40 5 40 10 0 6 18
10 40 10 38 0 40 2 40 30 l0 30 60 0 60 0 0 40 c0 33 3 40 20 40 17 0 20 7 20
38 0 31 8 47 40 82 22 24 40 38 40 32 0 -8 26 -12 80 -12 47 0 80 -4 80 -10 0
-5 18 -10 40 -10 38 0 54 13 28 23 -7 3 65 6 160 6 108 1 172 -3 172 -9 0 -5
22 -10 49 -10 41 0 53 -4 69 -25 22 -28 42 -33 42 -10 0 24 18 18 32 -11 8
-16 28 -31 51 -39 21 -7 46 -20 56 -29 10 -9 25 -16 33 -16 9 0 18 -9 21 -20
7 -27 53 -27 69 0 18 28 29 25 63 -12 l29 -33 6 38 c4 21 13 49 21 63 12 24
11 27 -11 45 -14 10 -43 19 -65 20 -53 2 -52 2 -114 23 -30 10 -64 27 -75 37
-11 11 -30 19 -42 19 -12 0 -27 6 -33 14 -7 8 -27 18 -44 22 -18 3 -38 11 -44
16 -7 6 -19 8 -27 5 -15 -6 -236 87 -246 103 -3 5 -19 11 -35 15 -92 21 -267
92 -285 117 -3 3 -23 9 -45 13 -47 9 -70 20 -108 51 -18 15 -42 24 -62 24 -25
0 -33 4 -29 14 4 10 -16 14 -88 19 -51 3 -156 12 -233 21 -231 26 -732 52
-751 39z m2224 -598 c-2 -22 -4 -23 -22 -11 -30 20 -31 36 -2 36 21 0 25 -4
24 -25z m-1362 -553 c-10 -2 -22 0 -28 6 -6 6 0 7 19 4 21 -5 23 -7 9 -10z"/>
<path d="M584 1585 c-9 -13 -14 -29 -12 -35 2 -6 11 5 19 24 19 42 16 46 -7
11z"/>
<path d="M529 1489 c-37 -74 -49 -123 -49 -194 0 -100 38 -209 109 -315 39
-57 39 -50 1 23 -16 31 -41 92 -56 134 -24 69 -26 87 -21 177 3 74 10 114 26
149 32 69 22 93 -10 26z"/>
<path d="M3550 1054 c0 -9 5 -14 12 -12 18 6 21 28 4 28 -9 0 -16 -7 -16 -16z"/>
<path d="M3522 970 c0 -14 2 -19 5 -12 2 6 2 18 0 25 -3 6 -5 1 -5 -13z"/>
<path d="M720 826 c0 -2 8 -10 18 -17 15 -13 16 -12 3 4 -13 16 -21 21 -21 13z"/>
<path d="M1555 341 c11 -5 36 -11 55 -15 l35 -6 -35 14 c-19 8 -44 15 -55 15
l-20 0 20 -8z"/>
<path d="M1660 310 c8 -5 26 -10 40 -10 20 0 22 2 10 10 -8 5 -26 10 -40 10
-20 0 -22 -2 -10 -10z"/>
<path d="M1768 283 c6 -2 18 -2 25 0 6 3 1 5 -13 5 -14 0 -19 -2 -12 -5z"/>
</g>
</svg>
